# xmcd
#
# Track frame offsets:
#	150
#	20187
#	30410
#	43987
#	61437
#	73840
#	87142
#	103752
#	116482
#	129152
#	141777
#	151570
#	167735
#	188337
#	208722
#
# Disc length: 2976 seconds
#
# Revision: 1
# Processed by: cddbd v1.5.1PL0 Copyright (c) Steve Scherf et al.
# Submitted via: CDex 1.50Beta5
#
DISCID=c70b9e0f
DTITLE=ダークダックス - ふるさと紀行
DYEAR=1900
DGENRE=Pop
TTITLE0=ふるさとの空
TTITLE1=この道
TTITLE2=北上夜曲
TTITLE3=花嫁人形
TTITLE4=故郷
TTITLE5=城ヶ島の雨
TTITLE6=月の砂漠
TTITLE7=波浮の港
TTITLE8=椰子の実
TTITLE9=琵琶湖就航の歌
TTITLE10=からたちの花
TTITLE11=島原の子守歌
TTITLE12=花
TTITLE13=まぼろし
TTITLE14=北帰行
EXTD=
EXTT0=
EXTT1=
EXTT2=
EXTT3=
EXTT4=
EXTT5=
EXTT6=
EXTT7=
EXTT8=
EXTT9=
EXTT10=
EXTT11=
EXTT12=
EXTT13=
EXTT14=
PLAYORDER=
